# xmcd
#
# Track frame offsets: 
#        150
#        12871
#        24731
#        37799
#        47102
#        58451
#        72444
#        87498
#        100101
#        113920
#        129181
#        141778
#
# Disc length: 2040 seconds
#
# Revision: 0
# Processed by: cddbd v1.5.2PL0 Copyright (c) Steve Scherf et al.
# Submitted via: ExactAudioCopyFreeDBPlugin 1.0
#
DISCID=a207f60c
DTITLE=Percy Sledge - Warm and Tender Soul
DYEAR=1996
DGENRE=R&B
TTITLE0=It Tears Me Up
TTITLE1=I'm Hanging Up My Heart For You
TTITLE2=You've Really Got A Hold On Me
TTITLE3=That's How Strong My Love Is
TTITLE4=A Sweet Woman Like You
TTITLE5=Love Me Tender
TTITLE6=Warm And Tender Love
TTITLE7=Try A Little Tenderness
TTITLE8=So Much Love
TTITLE9=I Stand Accused
TTITLE10=Heart Of A Child
TTITLE11=Oh How Happy
EXTD=
EXTT0=
EXTT1=
EXTT2=
EXTT3=
EXTT4=
EXTT5=
EXTT6=
EXTT7=
EXTT8=
EXTT9=
EXTT10=
EXTT11=
PLAYORDER=
